<mxfile host="app.diagrams.net" modified="2023-05-04T10:27:40.598Z" agent="Mozilla/5.0 (Windows NT 10.0; Win64; x64) AppleWebKit/537.36 (KHTML, like Gecko) Chrome/113.0.0.0 Safari/537.36" etag="GHiRv4-dcd2vnhbfbS79" version="21.2.7" type="github">
  <diagram name="페이지-1" id="YKgnvRb-fpwENH88y2F_">
    <mxGraphModel dx="1434" dy="756" grid="1" gridSize="10" guides="1" tooltips="1" connect="1" arrows="1" fold="1" page="1" pageScale="1" pageWidth="827" pageHeight="1169" math="0" shadow="0">
      <root>
        <mxCell id="0" />
        <mxCell id="1" parent="0" />
        <mxCell id="cCiWWziiK5z6rqYb0gwf-5" value="" style="rounded=0;whiteSpace=wrap;html=1;dashed=1;dashPattern=1 2;fillColor=none;" vertex="1" parent="1">
          <mxGeometry x="129" y="32" width="616" height="552.5" as="geometry" />
        </mxCell>
        <mxCell id="cCiWWziiK5z6rqYb0gwf-21" style="edgeStyle=orthogonalEdgeStyle;rounded=0;orthogonalLoop=1;jettySize=auto;html=1;entryX=0;entryY=0.5;entryDx=0;entryDy=0;" edge="1" parent="1" source="cCiWWziiK5z6rqYb0gwf-1" target="cCiWWziiK5z6rqYb0gwf-4">
          <mxGeometry relative="1" as="geometry" />
        </mxCell>
        <mxCell id="cCiWWziiK5z6rqYb0gwf-22" style="edgeStyle=orthogonalEdgeStyle;rounded=0;orthogonalLoop=1;jettySize=auto;html=1;entryX=0;entryY=0.5;entryDx=0;entryDy=0;" edge="1" parent="1" source="cCiWWziiK5z6rqYb0gwf-1" target="cCiWWziiK5z6rqYb0gwf-10">
          <mxGeometry relative="1" as="geometry" />
        </mxCell>
        <mxCell id="cCiWWziiK5z6rqYb0gwf-1" value="회원" style="shape=umlActor;verticalLabelPosition=bottom;verticalAlign=top;html=1;outlineConnect=0;" vertex="1" parent="1">
          <mxGeometry x="70" y="200" width="30" height="70" as="geometry" />
        </mxCell>
        <mxCell id="cCiWWziiK5z6rqYb0gwf-19" style="edgeStyle=orthogonalEdgeStyle;rounded=0;orthogonalLoop=1;jettySize=auto;html=1;entryX=0;entryY=0.5;entryDx=0;entryDy=0;" edge="1" parent="1" source="cCiWWziiK5z6rqYb0gwf-2" target="cCiWWziiK5z6rqYb0gwf-3">
          <mxGeometry relative="1" as="geometry" />
        </mxCell>
        <mxCell id="cCiWWziiK5z6rqYb0gwf-2" value="비회원" style="shape=umlActor;verticalLabelPosition=bottom;verticalAlign=top;html=1;outlineConnect=0;" vertex="1" parent="1">
          <mxGeometry x="70" y="390" width="30" height="70" as="geometry" />
        </mxCell>
        <mxCell id="cCiWWziiK5z6rqYb0gwf-3" value="회원가입" style="rounded=1;whiteSpace=wrap;html=1;" vertex="1" parent="1">
          <mxGeometry x="195" y="405" width="90" height="40" as="geometry" />
        </mxCell>
        <mxCell id="cCiWWziiK5z6rqYb0gwf-13" style="edgeStyle=orthogonalEdgeStyle;rounded=0;orthogonalLoop=1;jettySize=auto;html=1;entryX=0;entryY=0.5;entryDx=0;entryDy=0;" edge="1" parent="1" source="cCiWWziiK5z6rqYb0gwf-4" target="cCiWWziiK5z6rqYb0gwf-9">
          <mxGeometry relative="1" as="geometry" />
        </mxCell>
        <mxCell id="cCiWWziiK5z6rqYb0gwf-4" value="나만의 루틴" style="rounded=1;whiteSpace=wrap;html=1;" vertex="1" parent="1">
          <mxGeometry x="200" y="155" width="80" height="45" as="geometry" />
        </mxCell>
        <mxCell id="cCiWWziiK5z6rqYb0gwf-6" value="기록 서비스" style="text;html=1;strokeColor=none;fillColor=none;align=center;verticalAlign=middle;whiteSpace=wrap;rounded=0;" vertex="1" parent="1">
          <mxGeometry x="660" y="32" width="85" height="30" as="geometry" />
        </mxCell>
        <mxCell id="cCiWWziiK5z6rqYb0gwf-11" style="edgeStyle=orthogonalEdgeStyle;rounded=0;orthogonalLoop=1;jettySize=auto;html=1;entryX=0.5;entryY=0;entryDx=0;entryDy=0;dashed=1;" edge="1" parent="1" source="cCiWWziiK5z6rqYb0gwf-7" target="cCiWWziiK5z6rqYb0gwf-4">
          <mxGeometry relative="1" as="geometry">
            <Array as="points">
              <mxPoint x="240" y="80" />
            </Array>
          </mxGeometry>
        </mxCell>
        <mxCell id="cCiWWziiK5z6rqYb0gwf-7" value="운동 검색 기능" style="ellipse;whiteSpace=wrap;html=1;" vertex="1" parent="1">
          <mxGeometry x="340" y="55" width="86" height="50" as="geometry" />
        </mxCell>
        <mxCell id="cCiWWziiK5z6rqYb0gwf-15" style="edgeStyle=orthogonalEdgeStyle;rounded=0;orthogonalLoop=1;jettySize=auto;html=1;entryX=0.5;entryY=0;entryDx=0;entryDy=0;dashed=1;" edge="1" parent="1" source="cCiWWziiK5z6rqYb0gwf-8" target="cCiWWziiK5z6rqYb0gwf-9">
          <mxGeometry relative="1" as="geometry" />
        </mxCell>
        <mxCell id="cCiWWziiK5z6rqYb0gwf-8" value="운동 기록" style="ellipse;whiteSpace=wrap;html=1;" vertex="1" parent="1">
          <mxGeometry x="490" y="115" width="70" height="40" as="geometry" />
        </mxCell>
        <mxCell id="cCiWWziiK5z6rqYb0gwf-9" value="운동 시작 및 종료" style="rounded=1;whiteSpace=wrap;html=1;" vertex="1" parent="1">
          <mxGeometry x="334" y="155" width="80" height="45" as="geometry" />
        </mxCell>
        <mxCell id="cCiWWziiK5z6rqYb0gwf-10" value="운동 기록" style="rounded=1;whiteSpace=wrap;html=1;" vertex="1" parent="1">
          <mxGeometry x="200" y="280" width="80" height="45" as="geometry" />
        </mxCell>
        <mxCell id="cCiWWziiK5z6rqYb0gwf-18" style="edgeStyle=orthogonalEdgeStyle;rounded=0;orthogonalLoop=1;jettySize=auto;html=1;entryX=1;entryY=0.5;entryDx=0;entryDy=0;dashed=1;" edge="1" parent="1" source="cCiWWziiK5z6rqYb0gwf-17" target="cCiWWziiK5z6rqYb0gwf-10">
          <mxGeometry relative="1" as="geometry" />
        </mxCell>
        <mxCell id="cCiWWziiK5z6rqYb0gwf-17" value="반복했던 루틴에 대한 비교 분석" style="ellipse;whiteSpace=wrap;html=1;" vertex="1" parent="1">
          <mxGeometry x="334" y="277.5" width="190" height="50" as="geometry" />
        </mxCell>
      </root>
    </mxGraphModel>
  </diagram>
</mxfile>
